<svg width="32" height="32" viewBox="0 0 32 32" fill="none" xmlns="http://www.w3.org/2000/svg">
<path fill-rule="evenodd" clip-rule="evenodd" d="M17.3333 24.0001H26.6666C28.8757 24.0001 30.6666 22.2092 30.6666 20.0001V6.66675C30.6666 4.45761 28.8757 2.66675 26.6666 2.66675H5.33325C3.12411 2.66675 1.33325 4.45761 1.33325 6.66675V20.0001C1.33325 22.2092 3.12411 24.0001 5.33325 24.0001H14.6666V26.6667H10.6666C9.93021 26.6667 9.33325 27.2637 9.33325 28.0001C9.33325 28.7365 9.93021 29.3334 10.6666 29.3334H21.3333C22.0696 29.3334 22.6666 28.7365 22.6666 28.0001C22.6666 27.2637 22.0696 26.6667 21.3333 26.6667H17.3333V24.0001ZM5.33325 5.33341C4.59687 5.33341 3.99992 5.93037 3.99992 6.66675V20.0001C3.99992 20.7365 4.59687 21.3334 5.33325 21.3334H26.6666C27.403 21.3334 27.9999 20.7365 27.9999 20.0001V6.66675C27.9999 5.93037 27.403 5.33341 26.6666 5.33341H5.33325Z" fill="#292F36"/>
</svg>
